<svg width="2855" height="1799" viewBox="0 0 2855 1799" fill="none" xmlns="http://www.w3.org/2000/svg">
<rect x="0.5" y="0.5" width="2854" height="1798" stroke="black" stroke-opacity="0.81"/>
<mask id="path-2-inside-1_781_638" fill="white">
<path d="M1204 554L1241.5 489.048H1316.5L1354 554L1316.5 618.952H1241.5L1204 554Z"/>
<path d="M1204 684L1241.5 619.048H1316.5L1354 684L1316.5 748.952H1241.5L1204 684Z"/>
<path d="M1204 814L1241.5 749.048H1316.5L1354 814L1316.5 878.952H1241.5L1204 814Z"/>
<path d="M1204 944L1241.5 879.048H1316.5L1354 944L1316.5 1008.95H1241.5L1204 944Z"/>
<path d="M1204 296L1241.5 231.048H1316.5L1354 296L1316.5 360.952H1241.5L1204 296Z"/>
<path d="M1204 425L1241.5 360.048H1316.5L1354 425L1316.5 489.952H1241.5L1204 425Z"/>
<path d="M1204 1331L1241.5 1266.05H1316.5L1354 1331L1316.5 1395.95H1241.5L1204 1331Z"/>
<path d="M1204 1461L1241.5 1396.05H1316.5L1354 1461L1316.5 1525.95H1241.5L1204 1461Z"/>
<path d="M1204 1589L1241.5 1524.05H1316.5L1354 1589L1316.5 1653.95H1241.5L1204 1589Z"/>
<path d="M1204 1073L1241.5 1008.05H1316.5L1354 1073L1316.5 1137.95H1241.5L1204 1073Z"/>
<path d="M1204 1202L1241.5 1137.05H1316.5L1354 1202L1316.5 1266.95H1241.5L1204 1202Z"/>
<path d="M308 813L345.5 748.048H420.5L458 813L420.5 877.952H345.5L308 813Z"/>
<path d="M308 943L345.5 878.048H420.5L458 943L420.5 1007.95H345.5L308 943Z"/>
<path d="M308 1073L345.5 1008.05H420.5L458 1073L420.5 1137.95H345.5L308 1073Z"/>
<path d="M308 555L345.5 490.048H420.5L458 555L420.5 619.952H345.5L308 555Z"/>
<path d="M308 684L345.5 619.048H420.5L458 684L420.5 748.952H345.5L308 684Z"/>
<path d="M420 748L457.5 683.048H532.5L570 748L532.5 812.952H457.5L420 748Z"/>
<path d="M420 878L457.5 813.048H532.5L570 878L532.5 942.952H457.5L420 878Z"/>
<path d="M420 1008L457.5 943.048H532.5L570 1008L532.5 1072.95H457.5L420 1008Z"/>
<path d="M420 1138L457.5 1073.05H532.5L570 1138L532.5 1202.95H457.5L420 1138Z"/>
<path d="M420 490L457.5 425.048H532.5L570 490L532.5 554.952H457.5L420 490Z"/>
<path d="M420 619L457.5 554.048H532.5L570 619L532.5 683.952H457.5L420 619Z"/>
<path d="M532 683L569.5 618.048H644.5L682 683L644.5 747.952H569.5L532 683Z"/>
<path d="M532 813L569.5 748.048H644.5L682 813L644.5 877.952H569.5L532 813Z"/>
<path d="M532 943L569.5 878.048H644.5L682 943L644.5 1007.95H569.5L532 943Z"/>
<path d="M532 1073L569.5 1008.05H644.5L682 1073L644.5 1137.95H569.5L532 1073Z"/>
<path d="M532 425L569.5 360.048H644.5L682 425L644.5 489.952H569.5L532 425Z"/>
<path d="M532 554L569.5 489.048H644.5L682 554L644.5 618.952H569.5L532 554Z"/>
<path d="M532 1202L569.5 1137.05H644.5L682 1202L644.5 1266.95H569.5L532 1202Z"/>
<path d="M644 618L681.5 553.048H756.5L794 618L756.5 682.952H681.5L644 618Z"/>
<path d="M644 748L681.5 683.048H756.5L794 748L756.5 812.952H681.5L644 748Z"/>
<path d="M644 878L681.5 813.048H756.5L794 878L756.5 942.952H681.5L644 878Z"/>
<path d="M644 1008L681.5 943.048H756.5L794 1008L756.5 1072.95H681.5L644 1008Z"/>
<path d="M644 360L681.5 295.048H756.5L794 360L756.5 424.952H681.5L644 360Z"/>
<path d="M644 489L681.5 424.048H756.5L794 489L756.5 553.952H681.5L644 489Z"/>
<path d="M644 1137L681.5 1072.05H756.5L794 1137L756.5 1201.95H681.5L644 1137Z"/>
<path d="M644 1266L681.5 1201.05H756.5L794 1266L756.5 1330.95H681.5L644 1266Z"/>
<path d="M756 554L793.5 489.048H868.5L906 554L868.5 618.952H793.5L756 554Z"/>
<path d="M756 684L793.5 619.048H868.5L906 684L868.5 748.952H793.5L756 684Z"/>
<path d="M756 814L793.5 749.048H868.5L906 814L868.5 878.952H793.5L756 814Z"/>
<path d="M756 944L793.5 879.048H868.5L906 944L868.5 1008.95H793.5L756 944Z"/>
<path d="M756 296L793.5 231.048H868.5L906 296L868.5 360.952H793.5L756 296Z"/>
<path d="M756 425L793.5 360.048H868.5L906 425L868.5 489.952H793.5L756 425Z"/>
<path d="M756 1331L793.5 1266.05H868.5L906 1331L868.5 1395.95H793.5L756 1331Z"/>
<path d="M756 1073L793.5 1008.05H868.5L906 1073L868.5 1137.95H793.5L756 1073Z"/>
<path d="M756 1202L793.5 1137.05H868.5L906 1202L868.5 1266.95H793.5L756 1202Z"/>
<path d="M868 618L905.5 553.048H980.5L1018 618L980.5 682.952H905.5L868 618Z"/>
<path d="M868 748L905.5 683.048H980.5L1018 748L980.5 812.952H905.5L868 748Z"/>
<path d="M868 878L905.5 813.048H980.5L1018 878L980.5 942.952H905.5L868 878Z"/>
<path d="M868 1008L905.5 943.048H980.5L1018 1008L980.5 1072.95H905.5L868 1008Z"/>
<path d="M868 360L905.5 295.048H980.5L1018 360L980.5 424.952H905.5L868 360Z"/>
<path d="M868 489L905.5 424.048H980.5L1018 489L980.5 553.952H905.5L868 489Z"/>
<path d="M868 1395L905.5 1330.05H980.5L1018 1395L980.5 1459.95H905.5L868 1395Z"/>
<path d="M868 1137L905.5 1072.05H980.5L1018 1137L980.5 1201.95H905.5L868 1137Z"/>
<path d="M868 1266L905.5 1201.05H980.5L1018 1266L980.5 1330.95H905.5L868 1266Z"/>
<path d="M980 553L1017.5 488.048H1092.5L1130 553L1092.5 617.952H1017.5L980 553Z"/>
<path d="M980 683L1017.5 618.048H1092.5L1130 683L1092.5 747.952H1017.5L980 683Z"/>
<path d="M980 813L1017.5 748.048H1092.5L1130 813L1092.5 877.952H1017.5L980 813Z"/>
<path d="M980 943L1017.5 878.048H1092.5L1130 943L1092.5 1007.95H1017.5L980 943Z"/>
<path d="M980 295L1017.5 230.048H1092.5L1130 295L1092.5 359.952H1017.5L980 295Z"/>
<path d="M980 424L1017.5 359.048H1092.5L1130 424L1092.5 488.952H1017.5L980 424Z"/>
<path d="M980 1330L1017.5 1265.05H1092.5L1130 1330L1092.5 1394.95H1017.5L980 1330Z"/>
<path d="M980 1460L1017.5 1395.05H1092.5L1130 1460L1092.5 1524.95H1017.5L980 1460Z"/>
<path d="M980 1072L1017.5 1007.05H1092.5L1130 1072L1092.5 1136.95H1017.5L980 1072Z"/>
<path d="M980 1201L1017.5 1136.05H1092.5L1130 1201L1092.5 1265.95H1017.5L980 1201Z"/>
<path d="M2100 683L2137.5 618.048H2212.5L2250 683L2212.5 747.952H2137.5L2100 683Z"/>
<path d="M2100 813L2137.5 748.048H2212.5L2250 813L2212.5 877.952H2137.5L2100 813Z"/>
<path d="M2100 943L2137.5 878.048H2212.5L2250 943L2212.5 1007.95H2137.5L2100 943Z"/>
<path d="M2100 1073L2137.5 1008.05H2212.5L2250 1073L2212.5 1137.95H2137.5L2100 1073Z"/>
<path d="M2100 554L2137.5 489.048H2212.5L2250 554L2212.5 618.952H2137.5L2100 554Z"/>
<path d="M1988 618L2025.5 553.048H2100.5L2138 618L2100.5 682.952H2025.5L1988 618Z"/>
<path d="M1988 748L2025.5 683.048H2100.5L2138 748L2100.5 812.952H2025.5L1988 748Z"/>
<path d="M1988 878L2025.5 813.048H2100.5L2138 878L2100.5 942.952H2025.5L1988 878Z"/>
<path d="M1988 1008L2025.5 943.048H2100.5L2138 1008L2100.5 1072.95H2025.5L1988 1008Z"/>
<path d="M1988 489L2025.5 424.048H2100.5L2138 489L2100.5 553.952H2025.5L1988 489Z"/>
<path d="M1988 1137L2025.5 1072.05H2100.5L2138 1137L2100.5 1201.95H2025.5L1988 1137Z"/>
<path d="M1876 553L1913.5 488.048H1988.5L2026 553L1988.5 617.952H1913.5L1876 553Z"/>
<path d="M1876 683L1913.5 618.048H1988.5L2026 683L1988.5 747.952H1913.5L1876 683Z"/>
<path d="M1876 813L1913.5 748.048H1988.5L2026 813L1988.5 877.952H1913.5L1876 813Z"/>
<path d="M1876 943L1913.5 878.048H1988.5L2026 943L1988.5 1007.95H1913.5L1876 943Z"/>
<path d="M1876 424L1913.5 359.048H1988.5L2026 424L1988.5 488.952H1913.5L1876 424Z"/>
<path d="M1876 1072L1913.5 1007.05H1988.5L2026 1072L1988.5 1136.95H1913.5L1876 1072Z"/>
<path d="M1876 1201L1913.5 1136.05H1988.5L2026 1201L1988.5 1265.95H1913.5L1876 1201Z"/>
<path d="M1764 618L1801.5 553.048H1876.5L1914 618L1876.5 682.952H1801.5L1764 618Z"/>
<path d="M1764 748L1801.5 683.048H1876.5L1914 748L1876.5 812.952H1801.5L1764 748Z"/>
<path d="M1764 878L1801.5 813.048H1876.5L1914 878L1876.5 942.952H1801.5L1764 878Z"/>
<path d="M1764 1008L1801.5 943.048H1876.5L1914 1008L1876.5 1072.95H1801.5L1764 1008Z"/>
<path d="M1764 360L1801.5 295.048H1876.5L1914 360L1876.5 424.952H1801.5L1764 360Z"/>
<path d="M1764 489L1801.5 424.048H1876.5L1914 489L1876.5 553.952H1801.5L1764 489Z"/>
<path d="M1764 1137L1801.5 1072.05H1876.5L1914 1137L1876.5 1201.95H1801.5L1764 1137Z"/>
<path d="M1764 1266L1801.5 1201.05H1876.5L1914 1266L1876.5 1330.95H1801.5L1764 1266Z"/>
<path d="M1652 553L1689.5 488.048H1764.5L1802 553L1764.5 617.952H1689.5L1652 553Z"/>
<path d="M1652 683L1689.5 618.048H1764.5L1802 683L1764.5 747.952H1689.5L1652 683Z"/>
<path d="M1652 813L1689.5 748.048H1764.5L1802 813L1764.5 877.952H1689.5L1652 813Z"/>
<path d="M1652 943L1689.5 878.048H1764.5L1802 943L1764.5 1007.95H1689.5L1652 943Z"/>
<path d="M1652 295L1689.5 230.048H1764.5L1802 295L1764.5 359.952H1689.5L1652 295Z"/>
<path d="M1652 424L1689.5 359.048H1764.5L1802 424L1764.5 488.952H1689.5L1652 424Z"/>
<path d="M1652 1330L1689.5 1265.05H1764.5L1802 1330L1764.5 1394.95H1689.5L1652 1330Z"/>
<path d="M1652 1072L1689.5 1007.05H1764.5L1802 1072L1764.5 1136.95H1689.5L1652 1072Z"/>
<path d="M1652 1201L1689.5 1136.05H1764.5L1802 1201L1764.5 1265.95H1689.5L1652 1201Z"/>
<path d="M1540 488L1577.5 423.048H1652.5L1690 488L1652.5 552.952H1577.5L1540 488Z"/>
<path d="M1540 618L1577.5 553.048H1652.5L1690 618L1652.5 682.952H1577.5L1540 618Z"/>
<path d="M1540 748L1577.5 683.048H1652.5L1690 748L1652.5 812.952H1577.5L1540 748Z"/>
<path d="M1540 878L1577.5 813.048H1652.5L1690 878L1652.5 942.952H1577.5L1540 878Z"/>
<path d="M1540 359L1577.5 294.048H1652.5L1690 359L1652.5 423.952H1577.5L1540 359Z"/>
<path d="M1540 1265L1577.5 1200.05H1652.5L1690 1265L1652.5 1329.95H1577.5L1540 1265Z"/>
<path d="M1540 1395L1577.5 1330.05H1652.5L1690 1395L1652.5 1459.95H1577.5L1540 1395Z"/>
<path d="M1540 1007L1577.5 942.048H1652.5L1690 1007L1652.5 1071.95H1577.5L1540 1007Z"/>
<path d="M1540 1136L1577.5 1071.05H1652.5L1690 1136L1652.5 1200.95H1577.5L1540 1136Z"/>
<path d="M1428 553L1465.5 488.048H1540.5L1578 553L1540.5 617.952H1465.5L1428 553Z"/>
<path d="M1428 683L1465.5 618.048H1540.5L1578 683L1540.5 747.952H1465.5L1428 683Z"/>
<path d="M1428 813L1465.5 748.048H1540.5L1578 813L1540.5 877.952H1465.5L1428 813Z"/>
<path d="M1428 943L1465.5 878.048H1540.5L1578 943L1540.5 1007.95H1465.5L1428 943Z"/>
<path d="M1428 295L1465.5 230.048H1540.5L1578 295L1540.5 359.952H1465.5L1428 295Z"/>
<path d="M1428 424L1465.5 359.048H1540.5L1578 424L1540.5 488.952H1465.5L1428 424Z"/>
<path d="M1428 1330L1465.5 1265.05H1540.5L1578 1330L1540.5 1394.95H1465.5L1428 1330Z"/>
<path d="M1428 1460L1465.5 1395.05H1540.5L1578 1460L1540.5 1524.95H1465.5L1428 1460Z"/>
<path d="M1428 1072L1465.5 1007.05H1540.5L1578 1072L1540.5 1136.95H1465.5L1428 1072Z"/>
<path d="M1428 1201L1465.5 1136.05H1540.5L1578 1201L1540.5 1265.95H1465.5L1428 1201Z"/>
<path d="M1316 618L1353.5 553.048H1428.5L1466 618L1428.5 682.952H1353.5L1316 618Z"/>
<path d="M1316 748L1353.5 683.048H1428.5L1466 748L1428.5 812.952H1353.5L1316 748Z"/>
<path d="M1316 878L1353.5 813.048H1428.5L1466 878L1428.5 942.952H1353.5L1316 878Z"/>
<path d="M1316 1008L1353.5 943.048H1428.5L1466 1008L1428.5 1072.95H1353.5L1316 1008Z"/>
<path d="M1316 360L1353.5 295.048H1428.5L1466 360L1428.5 424.952H1353.5L1316 360Z"/>
<path d="M1316 489L1353.5 424.048H1428.5L1466 489L1428.5 553.952H1353.5L1316 489Z"/>
<path d="M1316 1395L1353.5 1330.05H1428.5L1466 1395L1428.5 1459.95H1353.5L1316 1395Z"/>
<path d="M1316 1525L1353.5 1460.05H1428.5L1466 1525L1428.5 1589.95H1353.5L1316 1525Z"/>
<path d="M1316 1137L1353.5 1072.05H1428.5L1466 1137L1428.5 1201.95H1353.5L1316 1137Z"/>
<path d="M1316 1266L1353.5 1201.05H1428.5L1466 1266L1428.5 1330.95H1353.5L1316 1266Z"/>
<path d="M1092 618L1129.5 553.048H1204.5L1242 618L1204.5 682.952H1129.5L1092 618Z"/>
<path d="M1092 748L1129.5 683.048H1204.5L1242 748L1204.5 812.952H1129.5L1092 748Z"/>
<path d="M1092 878L1129.5 813.048H1204.5L1242 878L1204.5 942.952H1129.5L1092 878Z"/>
<path d="M1092 1008L1129.5 943.048H1204.5L1242 1008L1204.5 1072.95H1129.5L1092 1008Z"/>
<path d="M1092 360L1129.5 295.048H1204.5L1242 360L1204.5 424.952H1129.5L1092 360Z"/>
<path d="M1092 489L1129.5 424.048H1204.5L1242 489L1204.5 553.952H1129.5L1092 489Z"/>
<path d="M1092 1395L1129.5 1330.05H1204.5L1242 1395L1204.5 1459.95H1129.5L1092 1395Z"/>
<path d="M1092 1525L1129.5 1460.05H1204.5L1242 1525L1204.5 1589.95H1129.5L1092 1525Z"/>
<path d="M1092 1137L1129.5 1072.05H1204.5L1242 1137L1204.5 1201.95H1129.5L1092 1137Z"/>
<path d="M1092 1266L1129.5 1201.05H1204.5L1242 1266L1204.5 1330.95H1129.5L1092 1266Z"/>
</mask>
<path d="M1204 296L1241.5 231.048H1316.5L1354 296L1316.5 360.952H1241.5L1204 296Z" fill="#F6EFEF" fill-opacity="0.63"/>
<path d="M308 555L345.5 490.048H420.5L458 555L420.5 619.952H345.5L308 555Z" fill="#185B22" fill-opacity="0.6"/>
<path d="M308 684L345.5 619.048H420.5L458 684L420.5 748.952H345.5L308 684Z" fill="#185B22" fill-opacity="0.6"/>
<path d="M420 490L457.5 425.048H532.5L570 490L532.5 554.952H457.5L420 490Z" fill="#185B22" fill-opacity="0.6"/>
<path d="M532 1202L569.5 1137.05H644.5L682 1202L644.5 1266.95H569.5L532 1202Z" fill="#CF1818" fill-opacity="0.56"/>
<path d="M644 1266L681.5 1201.05H756.5L794 1266L756.5 1330.95H681.5L644 1266Z" fill="#CF1818" fill-opacity="0.56"/>
<path d="M756 1331L793.5 1266.05H868.5L906 1331L868.5 1395.95H793.5L756 1331Z" fill="#CF1818" fill-opacity="0.56"/>
<path d="M2100 683L2137.5 618.048H2212.5L2250 683L2212.5 747.952H2137.5L2100 683Z" fill="#C4B476" fill-opacity="0.72"/>
<path d="M2100 554L2137.5 489.048H2212.5L2250 554L2212.5 618.952H2137.5L2100 554Z" fill="#C4B476" fill-opacity="0.72"/>
<path d="M1988 489L2025.5 424.048H2100.5L2138 489L2100.5 553.952H2025.5L1988 489Z" fill="#C4B476" fill-opacity="0.72"/>
<path d="M1764 1266L1801.5 1201.05H1876.5L1914 1266L1876.5 1330.95H1801.5L1764 1266Z" fill="#1867CF" fill-opacity="0.43"/>
<path d="M1652 1330L1689.5 1265.05H1764.5L1802 1330L1764.5 1394.95H1689.5L1652 1330Z" fill="#1867CF" fill-opacity="0.43"/>
<path d="M1540 1395L1577.5 1330.05H1652.5L1690 1395L1652.5 1459.95H1577.5L1540 1395Z" fill="#1867CF" fill-opacity="0.43"/>
<path d="M1316 360L1353.5 295.048H1428.5L1466 360L1428.5 424.952H1353.5L1316 360Z" fill="#F6EFEF" fill-opacity="0.63"/>
<path d="M1092 360L1129.5 295.048H1204.5L1242 360L1204.5 424.952H1129.5L1092 360Z" fill="#F6EFEF" fill-opacity="0.63"/>
<path d="M1204 554L1241.5 489.048H1316.5L1354 554L1316.5 618.952H1241.5L1204 554Z" stroke="black" stroke-width="2" mask="url(#path-2-inside-1_781_638)"/>
<path d="M1204 684L1241.5 619.048H1316.5L1354 684L1316.5 748.952H1241.5L1204 684Z" stroke="black" stroke-width="2" mask="url(#path-2-inside-1_781_638)"/>
<path d="M1204 814L1241.5 749.048H1316.5L1354 814L1316.5 878.952H1241.5L1204 814Z" stroke="black" stroke-width="2" mask="url(#path-2-inside-1_781_638)"/>
<path d="M1204 944L1241.5 879.048H1316.5L1354 944L1316.5 1008.95H1241.5L1204 944Z" stroke="black" stroke-width="2" mask="url(#path-2-inside-1_781_638)"/>
<path d="M1204 296L1241.5 231.048H1316.5L1354 296L1316.5 360.952H1241.5L1204 296Z" stroke="black" stroke-width="2" mask="url(#path-2-inside-1_781_638)"/>
<path d="M1204 425L1241.5 360.048H1316.5L1354 425L1316.5 489.952H1241.5L1204 425Z" stroke="black" stroke-width="2" mask="url(#path-2-inside-1_781_638)"/>
<path d="M1204 1331L1241.5 1266.05H1316.5L1354 1331L1316.5 1395.95H1241.5L1204 1331Z" stroke="black" stroke-width="2" mask="url(#path-2-inside-1_781_638)"/>
<path d="M1204 1461L1241.5 1396.05H1316.5L1354 1461L1316.5 1525.95H1241.5L1204 1461Z" stroke="black" stroke-width="2" mask="url(#path-2-inside-1_781_638)"/>
<path d="M1204 1589L1241.5 1524.05H1316.5L1354 1589L1316.5 1653.95H1241.5L1204 1589Z" stroke="black" stroke-width="2" mask="url(#path-2-inside-1_781_638)"/>
<path d="M1204 1073L1241.5 1008.05H1316.5L1354 1073L1316.5 1137.95H1241.5L1204 1073Z" stroke="black" stroke-width="2" mask="url(#path-2-inside-1_781_638)"/>
<path d="M1204 1202L1241.5 1137.05H1316.5L1354 1202L1316.5 1266.95H1241.5L1204 1202Z" stroke="black" stroke-width="2" mask="url(#path-2-inside-1_781_638)"/>
<path d="M308 813L345.5 748.048H420.5L458 813L420.5 877.952H345.5L308 813Z" stroke="black" stroke-width="2" mask="url(#path-2-inside-1_781_638)"/>
<path d="M308 943L345.5 878.048H420.5L458 943L420.5 1007.95H345.5L308 943Z" stroke="black" stroke-width="2" mask="url(#path-2-inside-1_781_638)"/>
<path d="M308 1073L345.5 1008.05H420.5L458 1073L420.5 1137.95H345.5L308 1073Z" stroke="black" stroke-width="2" mask="url(#path-2-inside-1_781_638)"/>
<path d="M308 555L345.5 490.048H420.5L458 555L420.5 619.952H345.5L308 555Z" stroke="black" stroke-width="2" mask="url(#path-2-inside-1_781_638)"/>
<path d="M308 684L345.5 619.048H420.5L458 684L420.5 748.952H345.5L308 684Z" stroke="black" stroke-width="2" mask="url(#path-2-inside-1_781_638)"/>
<path d="M420 748L457.5 683.048H532.5L570 748L532.5 812.952H457.5L420 748Z" stroke="black" stroke-width="2" mask="url(#path-2-inside-1_781_638)"/>
<path d="M420 878L457.5 813.048H532.5L570 878L532.5 942.952H457.5L420 878Z" stroke="black" stroke-width="2" mask="url(#path-2-inside-1_781_638)"/>
<path d="M420 1008L457.5 943.048H532.5L570 1008L532.5 1072.95H457.5L420 1008Z" stroke="black" stroke-width="2" mask="url(#path-2-inside-1_781_638)"/>
<path d="M420 1138L457.5 1073.05H532.5L570 1138L532.5 1202.95H457.5L420 1138Z" stroke="black" stroke-width="2" mask="url(#path-2-inside-1_781_638)"/>
<path d="M420 490L457.5 425.048H532.5L570 490L532.5 554.952H457.5L420 490Z" stroke="black" stroke-width="2" mask="url(#path-2-inside-1_781_638)"/>
<path d="M420 619L457.5 554.048H532.5L570 619L532.5 683.952H457.5L420 619Z" stroke="black" stroke-width="2" mask="url(#path-2-inside-1_781_638)"/>
<path d="M532 683L569.5 618.048H644.5L682 683L644.5 747.952H569.5L532 683Z" stroke="black" stroke-width="2" mask="url(#path-2-inside-1_781_638)"/>
<path d="M532 813L569.5 748.048H644.5L682 813L644.5 877.952H569.5L532 813Z" stroke="black" stroke-width="2" mask="url(#path-2-inside-1_781_638)"/>
<path d="M532 943L569.5 878.048H644.5L682 943L644.5 1007.95H569.5L532 943Z" stroke="black" stroke-width="2" mask="url(#path-2-inside-1_781_638)"/>
<path d="M532 1073L569.5 1008.05H644.5L682 1073L644.5 1137.95H569.5L532 1073Z" stroke="black" stroke-width="2" mask="url(#path-2-inside-1_781_638)"/>
<path d="M532 425L569.5 360.048H644.5L682 425L644.5 489.952H569.5L532 425Z" stroke="black" stroke-width="2" mask="url(#path-2-inside-1_781_638)"/>
<path d="M532 554L569.5 489.048H644.5L682 554L644.5 618.952H569.5L532 554Z" stroke="black" stroke-width="2" mask="url(#path-2-inside-1_781_638)"/>
<path d="M532 1202L569.5 1137.05H644.5L682 1202L644.5 1266.95H569.5L532 1202Z" stroke="black" stroke-width="2" mask="url(#path-2-inside-1_781_638)"/>
<path d="M644 618L681.5 553.048H756.5L794 618L756.5 682.952H681.5L644 618Z" stroke="black" stroke-width="2" mask="url(#path-2-inside-1_781_638)"/>
<path d="M644 748L681.5 683.048H756.5L794 748L756.5 812.952H681.5L644 748Z" stroke="black" stroke-width="2" mask="url(#path-2-inside-1_781_638)"/>
<path d="M644 878L681.5 813.048H756.5L794 878L756.5 942.952H681.5L644 878Z" stroke="black" stroke-width="2" mask="url(#path-2-inside-1_781_638)"/>
<path d="M644 1008L681.5 943.048H756.5L794 1008L756.5 1072.95H681.5L644 1008Z" stroke="black" stroke-width="2" mask="url(#path-2-inside-1_781_638)"/>
<path d="M644 360L681.5 295.048H756.5L794 360L756.5 424.952H681.5L644 360Z" stroke="black" stroke-width="2" mask="url(#path-2-inside-1_781_638)"/>
<path d="M644 489L681.5 424.048H756.5L794 489L756.5 553.952H681.5L644 489Z" stroke="black" stroke-width="2" mask="url(#path-2-inside-1_781_638)"/>
<path d="M644 1137L681.5 1072.05H756.5L794 1137L756.5 1201.95H681.5L644 1137Z" stroke="black" stroke-width="2" mask="url(#path-2-inside-1_781_638)"/>
<path d="M644 1266L681.5 1201.05H756.5L794 1266L756.5 1330.95H681.5L644 1266Z" stroke="black" stroke-width="2" mask="url(#path-2-inside-1_781_638)"/>
<path d="M756 554L793.5 489.048H868.5L906 554L868.5 618.952H793.5L756 554Z" stroke="black" stroke-width="2" mask="url(#path-2-inside-1_781_638)"/>
<path d="M756 684L793.5 619.048H868.5L906 684L868.5 748.952H793.5L756 684Z" stroke="black" stroke-width="2" mask="url(#path-2-inside-1_781_638)"/>
<path d="M756 814L793.5 749.048H868.5L906 814L868.5 878.952H793.5L756 814Z" stroke="black" stroke-width="2" mask="url(#path-2-inside-1_781_638)"/>
<path d="M756 944L793.5 879.048H868.5L906 944L868.5 1008.95H793.5L756 944Z" stroke="black" stroke-width="2" mask="url(#path-2-inside-1_781_638)"/>
<path d="M756 296L793.5 231.048H868.5L906 296L868.5 360.952H793.5L756 296Z" stroke="black" stroke-width="2" mask="url(#path-2-inside-1_781_638)"/>
<path d="M756 425L793.5 360.048H868.5L906 425L868.5 489.952H793.5L756 425Z" stroke="black" stroke-width="2" mask="url(#path-2-inside-1_781_638)"/>
<path d="M756 1331L793.5 1266.05H868.5L906 1331L868.5 1395.95H793.5L756 1331Z" stroke="black" stroke-width="2" mask="url(#path-2-inside-1_781_638)"/>
<path d="M756 1073L793.5 1008.05H868.5L906 1073L868.5 1137.95H793.5L756 1073Z" stroke="black" stroke-width="2" mask="url(#path-2-inside-1_781_638)"/>
<path d="M756 1202L793.5 1137.05H868.5L906 1202L868.5 1266.95H793.5L756 1202Z" stroke="black" stroke-width="2" mask="url(#path-2-inside-1_781_638)"/>
<path d="M868 618L905.5 553.048H980.5L1018 618L980.5 682.952H905.5L868 618Z" stroke="black" stroke-width="2" mask="url(#path-2-inside-1_781_638)"/>
<path d="M868 748L905.5 683.048H980.5L1018 748L980.5 812.952H905.5L868 748Z" stroke="black" stroke-width="2" mask="url(#path-2-inside-1_781_638)"/>
<path d="M868 878L905.5 813.048H980.5L1018 878L980.5 942.952H905.5L868 878Z" stroke="black" stroke-width="2" mask="url(#path-2-inside-1_781_638)"/>
<path d="M868 1008L905.5 943.048H980.5L1018 1008L980.5 1072.95H905.5L868 1008Z" stroke="black" stroke-width="2" mask="url(#path-2-inside-1_781_638)"/>
<path d="M868 360L905.5 295.048H980.5L1018 360L980.5 424.952H905.5L868 360Z" stroke="black" stroke-width="2" mask="url(#path-2-inside-1_781_638)"/>
<path d="M868 489L905.5 424.048H980.5L1018 489L980.5 553.952H905.5L868 489Z" stroke="black" stroke-width="2" mask="url(#path-2-inside-1_781_638)"/>
<path d="M868 1395L905.5 1330.05H980.5L1018 1395L980.5 1459.95H905.5L868 1395Z" stroke="black" stroke-width="2" mask="url(#path-2-inside-1_781_638)"/>
<path d="M868 1137L905.5 1072.05H980.5L1018 1137L980.5 1201.95H905.5L868 1137Z" stroke="black" stroke-width="2" mask="url(#path-2-inside-1_781_638)"/>
<path d="M868 1266L905.5 1201.05H980.5L1018 1266L980.5 1330.95H905.5L868 1266Z" stroke="black" stroke-width="2" mask="url(#path-2-inside-1_781_638)"/>
<path d="M980 553L1017.5 488.048H1092.5L1130 553L1092.5 617.952H1017.5L980 553Z" stroke="black" stroke-width="2" mask="url(#path-2-inside-1_781_638)"/>
<path d="M980 683L1017.5 618.048H1092.5L1130 683L1092.5 747.952H1017.5L980 683Z" stroke="black" stroke-width="2" mask="url(#path-2-inside-1_781_638)"/>
<path d="M980 813L1017.5 748.048H1092.5L1130 813L1092.5 877.952H1017.5L980 813Z" stroke="black" stroke-width="2" mask="url(#path-2-inside-1_781_638)"/>
<path d="M980 943L1017.5 878.048H1092.5L1130 943L1092.5 1007.95H1017.5L980 943Z" stroke="black" stroke-width="2" mask="url(#path-2-inside-1_781_638)"/>
<path d="M980 295L1017.5 230.048H1092.5L1130 295L1092.5 359.952H1017.5L980 295Z" stroke="black" stroke-width="2" mask="url(#path-2-inside-1_781_638)"/>
<path d="M980 424L1017.5 359.048H1092.5L1130 424L1092.5 488.952H1017.5L980 424Z" stroke="black" stroke-width="2" mask="url(#path-2-inside-1_781_638)"/>
<path d="M980 1330L1017.5 1265.05H1092.5L1130 1330L1092.5 1394.95H1017.5L980 1330Z" stroke="black" stroke-width="2" mask="url(#path-2-inside-1_781_638)"/>
<path d="M980 1460L1017.5 1395.05H1092.5L1130 1460L1092.5 1524.95H1017.5L980 1460Z" stroke="black" stroke-width="2" mask="url(#path-2-inside-1_781_638)"/>
<path d="M980 1072L1017.5 1007.05H1092.5L1130 1072L1092.5 1136.95H1017.5L980 1072Z" stroke="black" stroke-width="2" mask="url(#path-2-inside-1_781_638)"/>
<path d="M980 1201L1017.5 1136.05H1092.5L1130 1201L1092.5 1265.95H1017.5L980 1201Z" stroke="black" stroke-width="2" mask="url(#path-2-inside-1_781_638)"/>
<path d="M2100 683L2137.5 618.048H2212.5L2250 683L2212.5 747.952H2137.5L2100 683Z" stroke="black" stroke-width="2" mask="url(#path-2-inside-1_781_638)"/>
<path d="M2100 813L2137.5 748.048H2212.5L2250 813L2212.5 877.952H2137.5L2100 813Z" stroke="black" stroke-width="2" mask="url(#path-2-inside-1_781_638)"/>
<path d="M2100 943L2137.5 878.048H2212.5L2250 943L2212.5 1007.95H2137.5L2100 943Z" stroke="black" stroke-width="2" mask="url(#path-2-inside-1_781_638)"/>
<path d="M2100 1073L2137.5 1008.05H2212.5L2250 1073L2212.5 1137.95H2137.5L2100 1073Z" stroke="black" stroke-width="2" mask="url(#path-2-inside-1_781_638)"/>
<path d="M2100 554L2137.5 489.048H2212.5L2250 554L2212.5 618.952H2137.5L2100 554Z" stroke="black" stroke-width="2" mask="url(#path-2-inside-1_781_638)"/>
<path d="M1988 618L2025.5 553.048H2100.5L2138 618L2100.5 682.952H2025.5L1988 618Z" stroke="black" stroke-width="2" mask="url(#path-2-inside-1_781_638)"/>
<path d="M1988 748L2025.5 683.048H2100.5L2138 748L2100.5 812.952H2025.5L1988 748Z" stroke="black" stroke-width="2" mask="url(#path-2-inside-1_781_638)"/>
<path d="M1988 878L2025.5 813.048H2100.5L2138 878L2100.5 942.952H2025.5L1988 878Z" stroke="black" stroke-width="2" mask="url(#path-2-inside-1_781_638)"/>
<path d="M1988 1008L2025.5 943.048H2100.5L2138 1008L2100.5 1072.95H2025.5L1988 1008Z" stroke="black" stroke-width="2" mask="url(#path-2-inside-1_781_638)"/>
<path d="M1988 489L2025.5 424.048H2100.5L2138 489L2100.5 553.952H2025.5L1988 489Z" stroke="black" stroke-width="2" mask="url(#path-2-inside-1_781_638)"/>
<path d="M1988 1137L2025.5 1072.05H2100.5L2138 1137L2100.5 1201.95H2025.5L1988 1137Z" stroke="black" stroke-width="2" mask="url(#path-2-inside-1_781_638)"/>
<path d="M1876 553L1913.5 488.048H1988.5L2026 553L1988.5 617.952H1913.5L1876 553Z" stroke="black" stroke-width="2" mask="url(#path-2-inside-1_781_638)"/>
<path d="M1876 683L1913.5 618.048H1988.5L2026 683L1988.5 747.952H1913.5L1876 683Z" stroke="black" stroke-width="2" mask="url(#path-2-inside-1_781_638)"/>
<path d="M1876 813L1913.5 748.048H1988.5L2026 813L1988.5 877.952H1913.5L1876 813Z" stroke="black" stroke-width="2" mask="url(#path-2-inside-1_781_638)"/>
<path d="M1876 943L1913.5 878.048H1988.5L2026 943L1988.5 1007.95H1913.5L1876 943Z" stroke="black" stroke-width="2" mask="url(#path-2-inside-1_781_638)"/>
<path d="M1876 424L1913.5 359.048H1988.5L2026 424L1988.5 488.952H1913.5L1876 424Z" stroke="black" stroke-width="2" mask="url(#path-2-inside-1_781_638)"/>
<path d="M1876 1072L1913.5 1007.05H1988.5L2026 1072L1988.5 1136.95H1913.5L1876 1072Z" stroke="black" stroke-width="2" mask="url(#path-2-inside-1_781_638)"/>
<path d="M1876 1201L1913.5 1136.05H1988.5L2026 1201L1988.5 1265.95H1913.5L1876 1201Z" stroke="black" stroke-width="2" mask="url(#path-2-inside-1_781_638)"/>
<path d="M1764 618L1801.5 553.048H1876.5L1914 618L1876.5 682.952H1801.5L1764 618Z" stroke="black" stroke-width="2" mask="url(#path-2-inside-1_781_638)"/>
<path d="M1764 748L1801.5 683.048H1876.5L1914 748L1876.5 812.952H1801.5L1764 748Z" stroke="black" stroke-width="2" mask="url(#path-2-inside-1_781_638)"/>
<path d="M1764 878L1801.5 813.048H1876.5L1914 878L1876.5 942.952H1801.5L1764 878Z" stroke="black" stroke-width="2" mask="url(#path-2-inside-1_781_638)"/>
<path d="M1764 1008L1801.5 943.048H1876.5L1914 1008L1876.5 1072.95H1801.5L1764 1008Z" stroke="black" stroke-width="2" mask="url(#path-2-inside-1_781_638)"/>
<path d="M1764 360L1801.5 295.048H1876.5L1914 360L1876.5 424.952H1801.5L1764 360Z" stroke="black" stroke-width="2" mask="url(#path-2-inside-1_781_638)"/>
<path d="M1764 489L1801.5 424.048H1876.5L1914 489L1876.5 553.952H1801.5L1764 489Z" stroke="black" stroke-width="2" mask="url(#path-2-inside-1_781_638)"/>
<path d="M1764 1137L1801.5 1072.05H1876.5L1914 1137L1876.5 1201.95H1801.5L1764 1137Z" stroke="black" stroke-width="2" mask="url(#path-2-inside-1_781_638)"/>
<path d="M1764 1266L1801.5 1201.05H1876.5L1914 1266L1876.5 1330.95H1801.5L1764 1266Z" stroke="black" stroke-width="2" mask="url(#path-2-inside-1_781_638)"/>
<path d="M1652 553L1689.5 488.048H1764.5L1802 553L1764.5 617.952H1689.5L1652 553Z" stroke="black" stroke-width="2" mask="url(#path-2-inside-1_781_638)"/>
<path d="M1652 683L1689.5 618.048H1764.5L1802 683L1764.5 747.952H1689.5L1652 683Z" stroke="black" stroke-width="2" mask="url(#path-2-inside-1_781_638)"/>
<path d="M1652 813L1689.5 748.048H1764.5L1802 813L1764.5 877.952H1689.5L1652 813Z" stroke="black" stroke-width="2" mask="url(#path-2-inside-1_781_638)"/>
<path d="M1652 943L1689.5 878.048H1764.5L1802 943L1764.5 1007.95H1689.5L1652 943Z" stroke="black" stroke-width="2" mask="url(#path-2-inside-1_781_638)"/>
<path d="M1652 295L1689.5 230.048H1764.5L1802 295L1764.5 359.952H1689.5L1652 295Z" stroke="black" stroke-width="2" mask="url(#path-2-inside-1_781_638)"/>
<path d="M1652 424L1689.5 359.048H1764.5L1802 424L1764.5 488.952H1689.5L1652 424Z" stroke="black" stroke-width="2" mask="url(#path-2-inside-1_781_638)"/>
<path d="M1652 1330L1689.5 1265.05H1764.5L1802 1330L1764.5 1394.95H1689.5L1652 1330Z" stroke="black" stroke-width="2" mask="url(#path-2-inside-1_781_638)"/>
<path d="M1652 1072L1689.5 1007.05H1764.5L1802 1072L1764.5 1136.95H1689.5L1652 1072Z" stroke="black" stroke-width="2" mask="url(#path-2-inside-1_781_638)"/>
<path d="M1652 1201L1689.5 1136.05H1764.5L1802 1201L1764.5 1265.95H1689.5L1652 1201Z" stroke="black" stroke-width="2" mask="url(#path-2-inside-1_781_638)"/>
<path d="M1540 488L1577.5 423.048H1652.5L1690 488L1652.5 552.952H1577.5L1540 488Z" stroke="black" stroke-width="2" mask="url(#path-2-inside-1_781_638)"/>
<path d="M1540 618L1577.5 553.048H1652.5L1690 618L1652.5 682.952H1577.5L1540 618Z" stroke="black" stroke-width="2" mask="url(#path-2-inside-1_781_638)"/>
<path d="M1540 748L1577.5 683.048H1652.5L1690 748L1652.5 812.952H1577.5L1540 748Z" stroke="black" stroke-width="2" mask="url(#path-2-inside-1_781_638)"/>
<path d="M1540 878L1577.5 813.048H1652.5L1690 878L1652.5 942.952H1577.5L1540 878Z" stroke="black" stroke-width="2" mask="url(#path-2-inside-1_781_638)"/>
<path d="M1540 359L1577.5 294.048H1652.5L1690 359L1652.5 423.952H1577.5L1540 359Z" stroke="black" stroke-width="2" mask="url(#path-2-inside-1_781_638)"/>
<path d="M1540 1265L1577.5 1200.05H1652.5L1690 1265L1652.5 1329.95H1577.5L1540 1265Z" stroke="black" stroke-width="2" mask="url(#path-2-inside-1_781_638)"/>
<path d="M1540 1395L1577.5 1330.05H1652.5L1690 1395L1652.5 1459.95H1577.5L1540 1395Z" stroke="black" stroke-width="2" mask="url(#path-2-inside-1_781_638)"/>
<path d="M1540 1007L1577.5 942.048H1652.5L1690 1007L1652.5 1071.95H1577.5L1540 1007Z" stroke="black" stroke-width="2" mask="url(#path-2-inside-1_781_638)"/>
<path d="M1540 1136L1577.5 1071.05H1652.5L1690 1136L1652.5 1200.95H1577.5L1540 1136Z" stroke="black" stroke-width="2" mask="url(#path-2-inside-1_781_638)"/>
<path d="M1428 553L1465.5 488.048H1540.5L1578 553L1540.5 617.952H1465.5L1428 553Z" stroke="black" stroke-width="2" mask="url(#path-2-inside-1_781_638)"/>
<path d="M1428 683L1465.5 618.048H1540.5L1578 683L1540.5 747.952H1465.5L1428 683Z" stroke="black" stroke-width="2" mask="url(#path-2-inside-1_781_638)"/>
<path d="M1428 813L1465.5 748.048H1540.5L1578 813L1540.5 877.952H1465.5L1428 813Z" stroke="black" stroke-width="2" mask="url(#path-2-inside-1_781_638)"/>
<path d="M1428 943L1465.5 878.048H1540.5L1578 943L1540.5 1007.95H1465.5L1428 943Z" stroke="black" stroke-width="2" mask="url(#path-2-inside-1_781_638)"/>
<path d="M1428 295L1465.5 230.048H1540.5L1578 295L1540.5 359.952H1465.5L1428 295Z" stroke="black" stroke-width="2" mask="url(#path-2-inside-1_781_638)"/>
<path d="M1428 424L1465.5 359.048H1540.5L1578 424L1540.5 488.952H1465.5L1428 424Z" stroke="black" stroke-width="2" mask="url(#path-2-inside-1_781_638)"/>
<path d="M1428 1330L1465.5 1265.05H1540.5L1578 1330L1540.5 1394.95H1465.5L1428 1330Z" stroke="black" stroke-width="2" mask="url(#path-2-inside-1_781_638)"/>
<path d="M1428 1460L1465.5 1395.05H1540.5L1578 1460L1540.5 1524.95H1465.5L1428 1460Z" stroke="black" stroke-width="2" mask="url(#path-2-inside-1_781_638)"/>
<path d="M1428 1072L1465.5 1007.05H1540.5L1578 1072L1540.5 1136.95H1465.5L1428 1072Z" stroke="black" stroke-width="2" mask="url(#path-2-inside-1_781_638)"/>
<path d="M1428 1201L1465.5 1136.05H1540.5L1578 1201L1540.5 1265.95H1465.5L1428 1201Z" stroke="black" stroke-width="2" mask="url(#path-2-inside-1_781_638)"/>
<path d="M1316 618L1353.5 553.048H1428.5L1466 618L1428.5 682.952H1353.5L1316 618Z" stroke="black" stroke-width="2" mask="url(#path-2-inside-1_781_638)"/>
<path d="M1316 748L1353.5 683.048H1428.5L1466 748L1428.5 812.952H1353.5L1316 748Z" stroke="black" stroke-width="2" mask="url(#path-2-inside-1_781_638)"/>
<path d="M1316 878L1353.5 813.048H1428.5L1466 878L1428.5 942.952H1353.5L1316 878Z" stroke="black" stroke-width="2" mask="url(#path-2-inside-1_781_638)"/>
<path d="M1316 1008L1353.5 943.048H1428.5L1466 1008L1428.5 1072.95H1353.5L1316 1008Z" stroke="black" stroke-width="2" mask="url(#path-2-inside-1_781_638)"/>
<path d="M1316 360L1353.5 295.048H1428.5L1466 360L1428.5 424.952H1353.5L1316 360Z" stroke="black" stroke-width="2" mask="url(#path-2-inside-1_781_638)"/>
<path d="M1316 489L1353.5 424.048H1428.5L1466 489L1428.5 553.952H1353.5L1316 489Z" stroke="black" stroke-width="2" mask="url(#path-2-inside-1_781_638)"/>
<path d="M1316 1395L1353.5 1330.05H1428.5L1466 1395L1428.5 1459.95H1353.5L1316 1395Z" stroke="black" stroke-width="2" mask="url(#path-2-inside-1_781_638)"/>
<path d="M1316 1525L1353.5 1460.05H1428.5L1466 1525L1428.5 1589.95H1353.5L1316 1525Z" stroke="black" stroke-width="2" mask="url(#path-2-inside-1_781_638)"/>
<path d="M1316 1137L1353.5 1072.05H1428.5L1466 1137L1428.5 1201.95H1353.5L1316 1137Z" stroke="black" stroke-width="2" mask="url(#path-2-inside-1_781_638)"/>
<path d="M1316 1266L1353.5 1201.05H1428.5L1466 1266L1428.5 1330.95H1353.5L1316 1266Z" stroke="black" stroke-width="2" mask="url(#path-2-inside-1_781_638)"/>
<path d="M1092 618L1129.5 553.048H1204.5L1242 618L1204.5 682.952H1129.5L1092 618Z" stroke="black" stroke-width="2" mask="url(#path-2-inside-1_781_638)"/>
<path d="M1092 748L1129.5 683.048H1204.5L1242 748L1204.5 812.952H1129.5L1092 748Z" stroke="black" stroke-width="2" mask="url(#path-2-inside-1_781_638)"/>
<path d="M1092 878L1129.5 813.048H1204.5L1242 878L1204.5 942.952H1129.5L1092 878Z" stroke="black" stroke-width="2" mask="url(#path-2-inside-1_781_638)"/>
<path d="M1092 1008L1129.5 943.048H1204.5L1242 1008L1204.5 1072.95H1129.5L1092 1008Z" stroke="black" stroke-width="2" mask="url(#path-2-inside-1_781_638)"/>
<path d="M1092 360L1129.5 295.048H1204.5L1242 360L1204.5 424.952H1129.5L1092 360Z" stroke="black" stroke-width="2" mask="url(#path-2-inside-1_781_638)"/>
<path d="M1092 489L1129.5 424.048H1204.5L1242 489L1204.5 553.952H1129.5L1092 489Z" stroke="black" stroke-width="2" mask="url(#path-2-inside-1_781_638)"/>
<path d="M1092 1395L1129.5 1330.05H1204.5L1242 1395L1204.5 1459.95H1129.5L1092 1395Z" stroke="black" stroke-width="2" mask="url(#path-2-inside-1_781_638)"/>
<path d="M1092 1525L1129.5 1460.05H1204.5L1242 1525L1204.5 1589.95H1129.5L1092 1525Z" stroke="black" stroke-width="2" mask="url(#path-2-inside-1_781_638)"/>
<path d="M1092 1137L1129.5 1072.05H1204.5L1242 1137L1204.5 1201.95H1129.5L1092 1137Z" stroke="black" stroke-width="2" mask="url(#path-2-inside-1_781_638)"/>
<path d="M1092 1266L1129.5 1201.05H1204.5L1242 1266L1204.5 1330.95H1129.5L1092 1266Z" stroke="black" stroke-width="2" mask="url(#path-2-inside-1_781_638)"/>
</svg>
