<svg width="2855" height="1799" viewBox="0 0 2855 1799" fill="none" xmlns="http://www.w3.org/2000/svg">
<rect x="0.5" y="0.5" width="2854" height="1798" stroke="black" stroke-opacity="0.81"/>
<path d="M1241.79 489.548H1316.21L1353.42 554L1316.21 618.452H1241.79L1204.58 554L1241.79 489.548Z" stroke="black"/>
<path d="M1204 684L1241.5 619.048H1316.5L1354 684L1316.5 748.952H1241.5L1204 684Z" stroke="black"/>
<path d="M1204 814L1241.5 749.048H1316.5L1354 814L1316.5 878.952H1241.5L1204 814Z" stroke="black"/>
<path d="M1204 944L1241.5 879.048H1316.5L1354 944L1316.5 1008.95H1241.5L1204 944Z" stroke="black"/>
<path d="M1241.79 231.548H1316.21L1353.42 296L1316.21 360.452H1241.79L1204.58 296L1241.79 231.548Z" fill="#F6EFEF" fill-opacity="0.63" stroke="black"/>
<path d="M1241.79 360.548H1316.21L1353.42 425L1316.21 489.452H1241.79L1204.58 425L1241.79 360.548Z" stroke="black"/>
<path d="M1241.79 1266.55H1316.21L1353.42 1331L1316.21 1395.45H1241.79L1204.58 1331L1241.79 1266.55Z" stroke="black"/>
<path d="M1204 1461L1241.5 1396.05H1316.5L1354 1461L1316.5 1525.95H1241.5L1204 1461Z" stroke="black"/>
<path d="M1204 1589L1241.5 1524.05H1316.5L1354 1589L1316.5 1653.95H1241.5L1204 1589Z" stroke="black"/>
<path d="M1241.79 1008.55H1316.21L1353.42 1073L1316.21 1137.45H1241.79L1204.58 1073L1241.79 1008.55Z" stroke="black"/>
<path d="M1241.79 1137.55H1316.21L1353.42 1202L1316.21 1266.45H1241.79L1204.58 1202L1241.79 1137.55Z" stroke="black"/>
<path d="M345.788 748.548H420.211L457.423 813L420.211 877.452H345.788L308.576 813L345.788 748.548Z" stroke="black"/>
<path d="M308 943L345.5 878.048H420.5L458 943L420.5 1007.95H345.5L308 943Z" stroke="black"/>
<path d="M308 1073L345.5 1008.05H420.5L458 1073L420.5 1137.95H345.5L308 1073Z" stroke="black"/>
<path d="M345.788 490.548H420.211L457.423 555L420.211 619.452H345.788L308.576 555L345.788 490.548Z" fill="#185B22" fill-opacity="0.6" stroke="black"/>
<path d="M345.788 619.548H420.211L457.423 684L420.211 748.452H345.788L308.576 684L345.788 619.548Z" fill="#185B22" fill-opacity="0.6" stroke="black"/>
<path d="M457.788 683.548H532.211L569.423 748L532.211 812.452H457.788L420.576 748L457.788 683.548Z" stroke="black"/>
<path d="M420 878L457.5 813.048H532.5L570 878L532.5 942.952H457.5L420 878Z" stroke="black"/>
<path d="M420 1008L457.5 943.048H532.5L570 1008L532.5 1072.95H457.5L420 1008Z" stroke="black"/>
<path d="M420 1138L457.5 1073.05H532.5L570 1138L532.5 1202.95H457.5L420 1138Z" stroke="black"/>
<path d="M457.788 425.548H532.211L569.423 490L532.211 554.452H457.788L420.576 490L457.788 425.548Z" fill="#185B22" fill-opacity="0.6" stroke="black"/>
<path d="M457.788 554.548H532.211L569.423 619L532.211 683.452H457.788L420.576 619L457.788 554.548Z" stroke="black"/>
<path d="M569.788 618.548H644.211L681.423 683L644.211 747.452H569.788L532.576 683L569.788 618.548Z" stroke="black"/>
<path d="M532 813L569.5 748.048H644.5L682 813L644.5 877.952H569.5L532 813Z" stroke="black"/>
<path d="M532 943L569.5 878.048H644.5L682 943L644.5 1007.95H569.5L532 943Z" stroke="black"/>
<path d="M532 1073L569.5 1008.05H644.5L682 1073L644.5 1137.95H569.5L532 1073Z" stroke="black"/>
<path d="M569.788 360.548H644.211L681.423 425L644.211 489.452H569.788L532.576 425L569.788 360.548Z" stroke="black"/>
<path d="M569.788 489.548H644.211L681.423 554L644.211 618.452H569.788L532.576 554L569.788 489.548Z" stroke="black"/>
<path d="M569.788 1137.55H644.211L681.423 1202L644.211 1266.45H569.788L532.576 1202L569.788 1137.55Z" fill="#CF1818" fill-opacity="0.56" stroke="black"/>
<path d="M681.788 553.548H756.211L793.423 618L756.211 682.452H681.788L644.576 618L681.788 553.548Z" stroke="black"/>
<path d="M644 748L681.5 683.048H756.5L794 748L756.5 812.952H681.5L644 748Z" stroke="black"/>
<path d="M644 878L681.5 813.048H756.5L794 878L756.5 942.952H681.5L644 878Z" stroke="black"/>
<path d="M644 1008L681.5 943.048H756.5L794 1008L756.5 1072.95H681.5L644 1008Z" stroke="black"/>
<path d="M681.788 295.548H756.211L793.423 360L756.211 424.452H681.788L644.576 360L681.788 295.548Z" stroke="black"/>
<path d="M681.788 424.548H756.211L793.423 489L756.211 553.452H681.788L644.576 489L681.788 424.548Z" stroke="black"/>
<path d="M681.788 1072.55H756.211L793.423 1137L756.211 1201.45H681.788L644.576 1137L681.788 1072.55Z" stroke="black"/>
<path d="M681.788 1201.55H756.211L793.423 1266L756.211 1330.45H681.788L644.576 1266L681.788 1201.55Z" fill="#CF1818" fill-opacity="0.56" stroke="black"/>
<path d="M793.788 489.548H868.211L905.423 554L868.211 618.452H793.788L756.576 554L793.788 489.548Z" stroke="black"/>
<path d="M756 684L793.5 619.048H868.5L906 684L868.5 748.952H793.5L756 684Z" stroke="black"/>
<path d="M756 814L793.5 749.048H868.5L906 814L868.5 878.952H793.5L756 814Z" stroke="black"/>
<path d="M756 944L793.5 879.048H868.5L906 944L868.5 1008.95H793.5L756 944Z" stroke="black"/>
<path d="M793.788 231.548H868.211L905.423 296L868.211 360.452H793.788L756.576 296L793.788 231.548Z" stroke="black"/>
<path d="M793.788 360.548H868.211L905.423 425L868.211 489.452H793.788L756.576 425L793.788 360.548Z" stroke="black"/>
<path d="M793.788 1266.55H868.211L905.423 1331L868.211 1395.45H793.788L756.576 1331L793.788 1266.55Z" fill="#CF1818" fill-opacity="0.56" stroke="black"/>
<path d="M793.788 1008.55H868.211L905.423 1073L868.211 1137.45H793.788L756.576 1073L793.788 1008.55Z" stroke="black"/>
<path d="M793.788 1137.55H868.211L905.423 1202L868.211 1266.45H793.788L756.576 1202L793.788 1137.55Z" stroke="black"/>
<path d="M905.788 553.548H980.211L1017.42 618L980.211 682.452H905.788L868.576 618L905.788 553.548Z" stroke="black"/>
<path d="M868 748L905.5 683.048H980.5L1018 748L980.5 812.952H905.5L868 748Z" stroke="black"/>
<path d="M868 878L905.5 813.048H980.5L1018 878L980.5 942.952H905.5L868 878Z" stroke="black"/>
<path d="M868 1008L905.5 943.048H980.5L1018 1008L980.5 1072.95H905.5L868 1008Z" stroke="black"/>
<path d="M905.788 295.548H980.211L1017.42 360L980.211 424.452H905.788L868.576 360L905.788 295.548Z" stroke="black"/>
<path d="M905.788 424.548H980.211L1017.42 489L980.211 553.452H905.788L868.576 489L905.788 424.548Z" stroke="black"/>
<path d="M905.788 1330.55H980.211L1017.42 1395L980.211 1459.45H905.788L868.576 1395L905.788 1330.55Z" stroke="black"/>
<path d="M905.788 1072.55H980.211L1017.42 1137L980.211 1201.45H905.788L868.576 1137L905.788 1072.55Z" stroke="black"/>
<path d="M905.788 1201.55H980.211L1017.42 1266L980.211 1330.45H905.788L868.576 1266L905.788 1201.55Z" stroke="black"/>
<path d="M1017.79 488.548H1092.21L1129.42 553L1092.21 617.452H1017.79L980.576 553L1017.79 488.548Z" stroke="black"/>
<path d="M980 683L1017.5 618.048H1092.5L1130 683L1092.5 747.952H1017.5L980 683Z" stroke="black"/>
<path d="M980 813L1017.5 748.048H1092.5L1130 813L1092.5 877.952H1017.5L980 813Z" stroke="black"/>
<path d="M980 943L1017.5 878.048H1092.5L1130 943L1092.5 1007.95H1017.5L980 943Z" stroke="black"/>
<path d="M1017.79 230.548H1092.21L1129.42 295L1092.21 359.452H1017.79L980.576 295L1017.79 230.548Z" stroke="black"/>
<path d="M1017.79 359.548H1092.21L1129.42 424L1092.21 488.452H1017.79L980.576 424L1017.79 359.548Z" stroke="black"/>
<path d="M1017.79 1265.55H1092.21L1129.42 1330L1092.21 1394.45H1017.79L980.576 1330L1017.79 1265.55Z" stroke="black"/>
<path d="M980 1460L1017.5 1395.05H1092.5L1130 1460L1092.5 1524.95H1017.5L980 1460Z" stroke="black"/>
<path d="M1017.79 1007.55H1092.21L1129.42 1072L1092.21 1136.45H1017.79L980.576 1072L1017.79 1007.55Z" stroke="black"/>
<path d="M1017.79 1136.55H1092.21L1129.42 1201L1092.21 1265.45H1017.79L980.576 1201L1017.79 1136.55Z" stroke="black"/>
<path d="M2137.79 618.548H2212.21L2249.42 683L2212.21 747.452H2137.79L2100.58 683L2137.79 618.548Z" fill="#C4B476" fill-opacity="0.72" stroke="black"/>
<path d="M2100 813L2137.5 748.048H2212.5L2250 813L2212.5 877.952H2137.5L2100 813Z" stroke="black"/>
<path d="M2100 943L2137.5 878.048H2212.5L2250 943L2212.5 1007.95H2137.5L2100 943Z" stroke="black"/>
<path d="M2100 1073L2137.5 1008.05H2212.5L2250 1073L2212.5 1137.95H2137.5L2100 1073Z" stroke="black"/>
<path d="M2137.79 489.548H2212.21L2249.42 554L2212.21 618.452H2137.79L2100.58 554L2137.79 489.548Z" fill="#C4B476" fill-opacity="0.72" stroke="black"/>
<path d="M2025.79 553.548H2100.21L2137.42 618L2100.21 682.452H2025.79L1988.58 618L2025.79 553.548Z" stroke="black"/>
<path d="M1988 748L2025.5 683.048H2100.5L2138 748L2100.5 812.952H2025.5L1988 748Z" stroke="black"/>
<path d="M1988 878L2025.5 813.048H2100.5L2138 878L2100.5 942.952H2025.5L1988 878Z" stroke="black"/>
<path d="M1988 1008L2025.5 943.048H2100.5L2138 1008L2100.5 1072.95H2025.5L1988 1008Z" stroke="black"/>
<path d="M2025.79 424.548H2100.21L2137.42 489L2100.21 553.452H2025.79L1988.58 489L2025.79 424.548Z" fill="#C4B476" fill-opacity="0.72" stroke="black"/>
<path d="M2025.79 1072.55H2100.21L2137.42 1137L2100.21 1201.45H2025.79L1988.58 1137L2025.79 1072.55Z" stroke="black"/>
<path d="M1913.79 488.548H1988.21L2025.42 553L1988.21 617.452H1913.79L1876.58 553L1913.79 488.548Z" stroke="black"/>
<path d="M1876 683L1913.5 618.048H1988.5L2026 683L1988.5 747.952H1913.5L1876 683Z" stroke="black"/>
<path d="M1876 813L1913.5 748.048H1988.5L2026 813L1988.5 877.952H1913.5L1876 813Z" stroke="black"/>
<path d="M1876 943L1913.5 878.048H1988.5L2026 943L1988.5 1007.95H1913.5L1876 943Z" stroke="black"/>
<path d="M1913.79 359.548H1988.21L2025.42 424L1988.21 488.452H1913.79L1876.58 424L1913.79 359.548Z" stroke="black"/>
<path d="M1913.79 1007.55H1988.21L2025.42 1072L1988.21 1136.45H1913.79L1876.58 1072L1913.79 1007.55Z" stroke="black"/>
<path d="M1913.79 1136.55H1988.21L2025.42 1201L1988.21 1265.45H1913.79L1876.58 1201L1913.79 1136.55Z" stroke="black"/>
<path d="M1801.79 553.548H1876.21L1913.42 618L1876.21 682.452H1801.79L1764.58 618L1801.79 553.548Z" stroke="black"/>
<path d="M1764 748L1801.5 683.048H1876.5L1914 748L1876.5 812.952H1801.5L1764 748Z" stroke="black"/>
<path d="M1764 878L1801.5 813.048H1876.5L1914 878L1876.5 942.952H1801.5L1764 878Z" stroke="black"/>
<path d="M1764 1008L1801.5 943.048H1876.5L1914 1008L1876.5 1072.95H1801.5L1764 1008Z" stroke="black"/>
<path d="M1801.79 295.548H1876.21L1913.42 360L1876.21 424.452H1801.79L1764.58 360L1801.79 295.548Z" stroke="black"/>
<path d="M1801.79 424.548H1876.21L1913.42 489L1876.21 553.452H1801.79L1764.58 489L1801.79 424.548Z" stroke="black"/>
<path d="M1801.79 1072.55H1876.21L1913.42 1137L1876.21 1201.45H1801.79L1764.58 1137L1801.79 1072.55Z" stroke="black"/>
<path d="M1801.79 1201.55H1876.21L1913.42 1266L1876.21 1330.45H1801.79L1764.58 1266L1801.79 1201.55Z" fill="#1867CF" fill-opacity="0.43" stroke="black"/>
<path d="M1689.79 488.548H1764.21L1801.42 553L1764.21 617.452H1689.79L1652.58 553L1689.79 488.548Z" stroke="black"/>
<path d="M1652 683L1689.5 618.048H1764.5L1802 683L1764.5 747.952H1689.5L1652 683Z" stroke="black"/>
<path d="M1652 813L1689.5 748.048H1764.5L1802 813L1764.5 877.952H1689.5L1652 813Z" stroke="black"/>
<path d="M1652 943L1689.5 878.048H1764.5L1802 943L1764.5 1007.95H1689.5L1652 943Z" stroke="black"/>
<path d="M1689.79 230.548H1764.21L1801.42 295L1764.21 359.452H1689.79L1652.58 295L1689.79 230.548Z" stroke="black"/>
<path d="M1689.79 359.548H1764.21L1801.42 424L1764.21 488.452H1689.79L1652.58 424L1689.79 359.548Z" stroke="black"/>
<path d="M1689.79 1265.55H1764.21L1801.42 1330L1764.21 1394.45H1689.79L1652.58 1330L1689.79 1265.55Z" fill="#1867CF" fill-opacity="0.43" stroke="black"/>
<path d="M1689.79 1007.55H1764.21L1801.42 1072L1764.21 1136.45H1689.79L1652.58 1072L1689.79 1007.55Z" stroke="black"/>
<path d="M1689.79 1136.55H1764.21L1801.42 1201L1764.21 1265.45H1689.79L1652.58 1201L1689.79 1136.55Z" stroke="black"/>
<path d="M1577.79 423.548H1652.21L1689.42 488L1652.21 552.452H1577.79L1540.58 488L1577.79 423.548Z" stroke="black"/>
<path d="M1540 618L1577.5 553.048H1652.5L1690 618L1652.5 682.952H1577.5L1540 618Z" stroke="black"/>
<path d="M1540 748L1577.5 683.048H1652.5L1690 748L1652.5 812.952H1577.5L1540 748Z" stroke="black"/>
<path d="M1540 878L1577.5 813.048H1652.5L1690 878L1652.5 942.952H1577.5L1540 878Z" stroke="black"/>
<path d="M1577.79 294.548H1652.21L1689.42 359L1652.21 423.452H1577.79L1540.58 359L1577.79 294.548Z" stroke="black"/>
<path d="M1577.79 1200.55H1652.21L1689.42 1265L1652.21 1329.45H1577.79L1540.58 1265L1577.79 1200.55Z" stroke="black"/>
<path d="M1540 1395L1577.5 1330.05H1652.5L1690 1395L1652.5 1459.95H1577.5L1540 1395Z" fill="#1867CF" fill-opacity="0.43" stroke="black"/>
<path d="M1577.79 942.548H1652.21L1689.42 1007L1652.21 1071.45H1577.79L1540.58 1007L1577.79 942.548Z" stroke="black"/>
<path d="M1577.79 1071.55H1652.21L1689.42 1136L1652.21 1200.45H1577.79L1540.58 1136L1577.79 1071.55Z" stroke="black"/>
<path d="M1465.79 488.548H1540.21L1577.42 553L1540.21 617.452H1465.79L1428.58 553L1465.79 488.548Z" stroke="black"/>
<path d="M1428 683L1465.5 618.048H1540.5L1578 683L1540.5 747.952H1465.5L1428 683Z" stroke="black"/>
<path d="M1428 813L1465.5 748.048H1540.5L1578 813L1540.5 877.952H1465.5L1428 813Z" stroke="black"/>
<path d="M1428 943L1465.5 878.048H1540.5L1578 943L1540.5 1007.95H1465.5L1428 943Z" stroke="black"/>
<path d="M1465.79 230.548H1540.21L1577.42 295L1540.21 359.452H1465.79L1428.58 295L1465.79 230.548Z" stroke="black"/>
<path d="M1465.79 359.548H1540.21L1577.42 424L1540.21 488.452H1465.79L1428.58 424L1465.79 359.548Z" stroke="black"/>
<path d="M1465.79 1265.55H1540.21L1577.42 1330L1540.21 1394.45H1465.79L1428.58 1330L1465.79 1265.55Z" stroke="black"/>
<path d="M1428 1460L1465.5 1395.05H1540.5L1578 1460L1540.5 1524.95H1465.5L1428 1460Z" stroke="black"/>
<path d="M1465.79 1007.55H1540.21L1577.42 1072L1540.21 1136.45H1465.79L1428.58 1072L1465.79 1007.55Z" stroke="black"/>
<path d="M1465.79 1136.55H1540.21L1577.42 1201L1540.21 1265.45H1465.79L1428.58 1201L1465.79 1136.55Z" stroke="black"/>
<path d="M1353.79 553.548H1428.21L1465.42 618L1428.21 682.452H1353.79L1316.58 618L1353.79 553.548Z" stroke="black"/>
<path d="M1316 748L1353.5 683.048H1428.5L1466 748L1428.5 812.952H1353.5L1316 748Z" stroke="black"/>
<path d="M1316 878L1353.5 813.048H1428.5L1466 878L1428.5 942.952H1353.5L1316 878Z" stroke="black"/>
<path d="M1316 1008L1353.5 943.048H1428.5L1466 1008L1428.5 1072.95H1353.5L1316 1008Z" stroke="black"/>
<path d="M1353.79 295.548H1428.21L1465.42 360L1428.21 424.452H1353.79L1316.58 360L1353.79 295.548Z" fill="#F6EFEF" fill-opacity="0.63" stroke="black"/>
<path d="M1353.79 424.548H1428.21L1465.42 489L1428.21 553.452H1353.79L1316.58 489L1353.79 424.548Z" stroke="black"/>
<path d="M1353.79 1330.55H1428.21L1465.42 1395L1428.21 1459.45H1353.79L1316.58 1395L1353.79 1330.55Z" stroke="black"/>
<path d="M1316 1525L1353.5 1460.05H1428.5L1466 1525L1428.5 1589.95H1353.5L1316 1525Z" stroke="black"/>
<path d="M1353.79 1072.55H1428.21L1465.42 1137L1428.21 1201.45H1353.79L1316.58 1137L1353.79 1072.55Z" stroke="black"/>
<path d="M1353.79 1201.55H1428.21L1465.42 1266L1428.21 1330.45H1353.79L1316.58 1266L1353.79 1201.55Z" stroke="black"/>
<path d="M1129.79 553.548H1204.21L1241.42 618L1204.21 682.452H1129.79L1092.58 618L1129.79 553.548Z" stroke="black"/>
<path d="M1092 748L1129.5 683.048H1204.5L1242 748L1204.5 812.952H1129.5L1092 748Z" stroke="black"/>
<path d="M1092 878L1129.5 813.048H1204.5L1242 878L1204.5 942.952H1129.5L1092 878Z" stroke="black"/>
<path d="M1092 1008L1129.5 943.048H1204.5L1242 1008L1204.5 1072.95H1129.5L1092 1008Z" stroke="black"/>
<path d="M1129.79 295.548H1204.21L1241.42 360L1204.21 424.452H1129.79L1092.58 360L1129.79 295.548Z" fill="#F6EFEF" fill-opacity="0.63" stroke="black"/>
<path d="M1129.79 424.548H1204.21L1241.42 489L1204.21 553.452H1129.79L1092.58 489L1129.79 424.548Z" stroke="black"/>
<path d="M1129.79 1330.55H1204.21L1241.42 1395L1204.21 1459.45H1129.79L1092.58 1395L1129.79 1330.55Z" stroke="black"/>
<path d="M1092 1525L1129.5 1460.05H1204.5L1242 1525L1204.5 1589.95H1129.5L1092 1525Z" stroke="black"/>
<path d="M1129.79 1072.55H1204.21L1241.42 1137L1204.21 1201.45H1129.79L1092.58 1137L1129.79 1072.55Z" stroke="black"/>
<path d="M1129.79 1201.55H1204.21L1241.42 1266L1204.21 1330.45H1129.79L1092.58 1266L1129.79 1201.55Z" stroke="black"/>
</svg>
