<svg xmlns="http://www.w3.org/2000/svg" viewBox="0 0 600 520">
  <!-- 10 hexagones simples, disposés en grille -->
  <polygon points="50,0 100,25 100,75 50,100 0,75 0,25" fill="none" stroke="black" />
  <polygon points="150,0 200,25 200,75 150,100 100,75 100,25" fill="none" stroke="black" />
  <polygon points="250,0 300,25 300,75 250,100 200,75 200,25" fill="none" stroke="black" />
  <polygon points="350,0 400,25 400,75 350,100 300,75 300,25" fill="none" stroke="black" />
  <polygon points="450,0 500,25 500,75 450,100 400,75 400,25" fill="none" stroke="black" />

  <polygon points="100,90 150,115 150,165 100,190 50,165 50,115" fill="none" stroke="black" />
  <polygon points="200,90 250,115 250,165 200,190 150,165 150,115" fill="none" stroke="black" />
  <polygon points="300,90 350,115 350,165 300,190 250,165 250,115" fill="none" stroke="black" />
  <polygon points="400,90 450,115 450,165 400,190 350,165 350,115" fill="none" stroke="black" />
  <polygon points="500,90 550,115 550,165 500,190 450,165 450,115" fill="none" stroke="black" />
</svg>
