<svg width="1944" height="1444" viewBox="0 0 1944 1444" fill="none" xmlns="http://www.w3.org/2000/svg">
<path d="M934.365 269.548H1008.79L1046 334L1008.79 398.452H934.365L897.153 334L934.365 269.548Z" stroke="black"/>
<path d="M896.577 464L934.077 399.048H1009.08L1046.58 464L1009.08 528.952H934.077L896.577 464Z" stroke="black"/>
<path d="M896.577 594L934.077 529.048H1009.08L1046.58 594L1009.08 658.952H934.077L896.577 594Z" stroke="black"/>
<path d="M896.577 724L934.077 659.048H1009.08L1046.58 724L1009.08 788.952H934.077L896.577 724Z" stroke="black"/>
<path d="M934.365 11.5479H1008.79L1046 76L1008.79 140.452H934.365L897.153 76L934.365 11.5479Z" fill="#F6EFEF" fill-opacity="0.63" stroke="black"/>
<path d="M934.365 140.548H1008.79L1046 205L1008.79 269.452H934.365L897.153 205L934.365 140.548Z" stroke="black"/>
<path d="M934.365 1046.55H1008.79L1046 1111L1008.79 1175.45H934.365L897.153 1111L934.365 1046.55Z" stroke="black"/>
<path d="M896.577 1241L934.077 1176.05H1009.08L1046.58 1241L1009.08 1305.95H934.077L896.577 1241Z" stroke="black"/>
<path d="M896.577 1369L934.077 1304.05H1009.08L1046.58 1369L1009.08 1433.95H934.077L896.577 1369Z" stroke="black"/>
<path d="M934.365 788.548H1008.79L1046 853L1008.79 917.452H934.365L897.153 853L934.365 788.548Z" stroke="black"/>
<path d="M934.365 917.548H1008.79L1046 982L1008.79 1046.45H934.365L897.153 982L934.365 917.548Z" stroke="black"/>
<path d="M38.3652 528.548H112.788L150 593L112.788 657.452H38.3652L1.15332 593L38.3652 528.548Z" stroke="black"/>
<path d="M0.577148 723L38.0771 658.048H113.077L150.577 723L113.077 787.952H38.0771L0.577148 723Z" stroke="black"/>
<path d="M0.577148 853L38.0771 788.048H113.077L150.577 853L113.077 917.952H38.0771L0.577148 853Z" stroke="black"/>
<path d="M38.3652 270.548H112.788L150 335L112.788 399.452H38.3652L1.15332 335L38.3652 270.548Z" fill="#185B22" fill-opacity="0.6" stroke="black"/>
<path d="M38.3652 399.548H112.788L150 464L112.788 528.452H38.3652L1.15332 464L38.3652 399.548Z" fill="#185B22" fill-opacity="0.6" stroke="black"/>
<path d="M150.365 463.548H224.788L262 528L224.788 592.452H150.365L113.153 528L150.365 463.548Z" stroke="black"/>
<path d="M112.577 658L150.077 593.048H225.077L262.577 658L225.077 722.952H150.077L112.577 658Z" stroke="black"/>
<path d="M112.577 788L150.077 723.048H225.077L262.577 788L225.077 852.952H150.077L112.577 788Z" stroke="black"/>
<path d="M112.577 918L150.077 853.048H225.077L262.577 918L225.077 982.952H150.077L112.577 918Z" stroke="black"/>
<path d="M150.365 205.548H224.788L262 270L224.788 334.452H150.365L113.153 270L150.365 205.548Z" fill="#185B22" fill-opacity="0.6" stroke="black"/>
<path d="M150.365 334.548H224.788L262 399L224.788 463.452H150.365L113.153 399L150.365 334.548Z" stroke="black"/>
<path d="M262.365 398.548H336.788L374 463L336.788 527.452H262.365L225.153 463L262.365 398.548Z" stroke="black"/>
<path d="M224.577 593L262.077 528.048H337.077L374.577 593L337.077 657.952H262.077L224.577 593Z" stroke="black"/>
<path d="M224.577 723L262.077 658.048H337.077L374.577 723L337.077 787.952H262.077L224.577 723Z" stroke="black"/>
<path d="M224.577 853L262.077 788.048H337.077L374.577 853L337.077 917.952H262.077L224.577 853Z" stroke="black"/>
<path d="M262.365 140.548H336.788L374 205L336.788 269.452H262.365L225.153 205L262.365 140.548Z" stroke="black"/>
<path d="M262.365 269.548H336.788L374 334L336.788 398.452H262.365L225.153 334L262.365 269.548Z" stroke="black"/>
<path d="M262.365 917.548H336.788L374 982L336.788 1046.45H262.365L225.153 982L262.365 917.548Z" fill="#CF1818" fill-opacity="0.56" stroke="black"/>
<path d="M374.365 333.548H448.788L486 398L448.788 462.452H374.365L337.153 398L374.365 333.548Z" stroke="black"/>
<path d="M336.577 528L374.077 463.048H449.077L486.577 528L449.077 592.952H374.077L336.577 528Z" stroke="black"/>
<path d="M336.577 658L374.077 593.048H449.077L486.577 658L449.077 722.952H374.077L336.577 658Z" stroke="black"/>
<path d="M336.577 788L374.077 723.048H449.077L486.577 788L449.077 852.952H374.077L336.577 788Z" stroke="black"/>
<path d="M374.365 75.5479H448.788L486 140L448.788 204.452H374.365L337.153 140L374.365 75.5479Z" stroke="black"/>
<path d="M374.365 204.548H448.788L486 269L448.788 333.452H374.365L337.153 269L374.365 204.548Z" stroke="black"/>
<path d="M374.365 852.548H448.788L486 917L448.788 981.452H374.365L337.153 917L374.365 852.548Z" stroke="black"/>
<path d="M374.365 981.548H448.788L486 1046L448.788 1110.45H374.365L337.153 1046L374.365 981.548Z" fill="#CF1818" fill-opacity="0.56" stroke="black"/>
<path d="M486.365 269.548H560.788L598 334L560.788 398.452H486.365L449.153 334L486.365 269.548Z" stroke="black"/>
<path d="M448.577 464L486.077 399.048H561.077L598.577 464L561.077 528.952H486.077L448.577 464Z" stroke="black"/>
<path d="M448.577 594L486.077 529.048H561.077L598.577 594L561.077 658.952H486.077L448.577 594Z" stroke="black"/>
<path d="M448.577 724L486.077 659.048H561.077L598.577 724L561.077 788.952H486.077L448.577 724Z" stroke="black"/>
<path d="M486.365 11.5479H560.788L598 76L560.788 140.452H486.365L449.153 76L486.365 11.5479Z" stroke="black"/>
<path d="M486.365 140.548H560.788L598 205L560.788 269.452H486.365L449.153 205L486.365 140.548Z" stroke="black"/>
<path d="M486.365 1046.55H560.788L598 1111L560.788 1175.45H486.365L449.153 1111L486.365 1046.55Z" fill="#CF1818" fill-opacity="0.56" stroke="black"/>
<path d="M486.365 788.548H560.788L598 853L560.788 917.452H486.365L449.153 853L486.365 788.548Z" stroke="black"/>
<path d="M486.365 917.548H560.788L598 982L560.788 1046.45H486.365L449.153 982L486.365 917.548Z" stroke="black"/>
<path d="M598.365 333.548H672.788L710 398L672.788 462.452H598.365L561.153 398L598.365 333.548Z" stroke="black"/>
<path d="M560.577 528L598.077 463.048H673.077L710.577 528L673.077 592.952H598.077L560.577 528Z" stroke="black"/>
<path d="M560.577 658L598.077 593.048H673.077L710.577 658L673.077 722.952H598.077L560.577 658Z" stroke="black"/>
<path d="M560.577 788L598.077 723.048H673.077L710.577 788L673.077 852.952H598.077L560.577 788Z" stroke="black"/>
<path d="M598.365 75.5479H672.788L710 140L672.788 204.452H598.365L561.153 140L598.365 75.5479Z" stroke="black"/>
<path d="M598.365 204.548H672.788L710 269L672.788 333.452H598.365L561.153 269L598.365 204.548Z" stroke="black"/>
<path d="M598.365 1110.55H672.788L710 1175L672.788 1239.45H598.365L561.153 1175L598.365 1110.55Z" stroke="black"/>
<path d="M598.365 852.548H672.788L710 917L672.788 981.452H598.365L561.153 917L598.365 852.548Z" stroke="black"/>
<path d="M598.365 981.548H672.788L710 1046L672.788 1110.45H598.365L561.153 1046L598.365 981.548Z" stroke="black"/>
<path d="M710.365 268.548H784.788L822 333L784.788 397.452H710.365L673.153 333L710.365 268.548Z" stroke="black"/>
<path d="M672.577 463L710.077 398.048H785.077L822.577 463L785.077 527.952H710.077L672.577 463Z" stroke="black"/>
<path d="M672.577 593L710.077 528.048H785.077L822.577 593L785.077 657.952H710.077L672.577 593Z" stroke="black"/>
<path d="M672.577 723L710.077 658.048H785.077L822.577 723L785.077 787.952H710.077L672.577 723Z" stroke="black"/>
<path d="M710.365 10.5479H784.788L822 75L784.788 139.452H710.365L673.153 75L710.365 10.5479Z" stroke="black"/>
<path d="M710.365 139.548H784.788L822 204L784.788 268.452H710.365L673.153 204L710.365 139.548Z" stroke="black"/>
<path d="M710.365 1045.55H784.788L822 1110L784.788 1174.45H710.365L673.153 1110L710.365 1045.55Z" stroke="black"/>
<path d="M672.577 1240L710.077 1175.05H785.077L822.577 1240L785.077 1304.95H710.077L672.577 1240Z" stroke="black"/>
<path d="M710.365 787.548H784.788L822 852L784.788 916.452H710.365L673.153 852L710.365 787.548Z" stroke="black"/>
<path d="M710.365 916.548H784.788L822 981L784.788 1045.45H710.365L673.153 981L710.365 916.548Z" stroke="black"/>
<path d="M1830.37 398.548H1904.79L1942 463L1904.79 527.452H1830.37L1793.15 463L1830.37 398.548Z" fill="#C4B476" fill-opacity="0.72" stroke="black"/>
<path d="M1792.58 593L1830.08 528.048H1905.08L1942.58 593L1905.08 657.952H1830.08L1792.58 593Z" stroke="black"/>
<path d="M1792.58 723L1830.08 658.048H1905.08L1942.58 723L1905.08 787.952H1830.08L1792.58 723Z" stroke="black"/>
<path d="M1792.58 853L1830.08 788.048H1905.08L1942.58 853L1905.08 917.952H1830.08L1792.58 853Z" stroke="black"/>
<path d="M1830.37 269.548H1904.79L1942 334L1904.79 398.452H1830.37L1793.15 334L1830.37 269.548Z" fill="#C4B476" fill-opacity="0.72" stroke="black"/>
<path d="M1718.37 333.548H1792.79L1830 398L1792.79 462.452H1718.37L1681.15 398L1718.37 333.548Z" stroke="black"/>
<path d="M1680.58 528L1718.08 463.048H1793.08L1830.58 528L1793.08 592.952H1718.08L1680.58 528Z" stroke="black"/>
<path d="M1680.58 658L1718.08 593.048H1793.08L1830.58 658L1793.08 722.952H1718.08L1680.58 658Z" stroke="black"/>
<path d="M1680.58 788L1718.08 723.048H1793.08L1830.58 788L1793.08 852.952H1718.08L1680.58 788Z" stroke="black"/>
<path d="M1718.37 204.548H1792.79L1830 269L1792.79 333.452H1718.37L1681.15 269L1718.37 204.548Z" fill="#C4B476" fill-opacity="0.72" stroke="black"/>
<path d="M1718.37 852.548H1792.79L1830 917L1792.79 981.452H1718.37L1681.15 917L1718.37 852.548Z" stroke="black"/>
<path d="M1606.37 268.548H1680.79L1718 333L1680.79 397.452H1606.37L1569.15 333L1606.37 268.548Z" stroke="black"/>
<path d="M1568.58 463L1606.08 398.048H1681.08L1718.58 463L1681.08 527.952H1606.08L1568.58 463Z" stroke="black"/>
<path d="M1568.58 593L1606.08 528.048H1681.08L1718.58 593L1681.08 657.952H1606.08L1568.58 593Z" stroke="black"/>
<path d="M1568.58 723L1606.08 658.048H1681.08L1718.58 723L1681.08 787.952H1606.08L1568.58 723Z" stroke="black"/>
<path d="M1606.37 139.548H1680.79L1718 204L1680.79 268.452H1606.37L1569.15 204L1606.37 139.548Z" stroke="black"/>
<path d="M1606.37 787.548H1680.79L1718 852L1680.79 916.452H1606.37L1569.15 852L1606.37 787.548Z" stroke="black"/>
<path d="M1606.37 916.548H1680.79L1718 981L1680.79 1045.45H1606.37L1569.15 981L1606.37 916.548Z" stroke="black"/>
<path d="M1494.37 333.548H1568.79L1606 398L1568.79 462.452H1494.37L1457.15 398L1494.37 333.548Z" stroke="black"/>
<path d="M1456.58 528L1494.08 463.048H1569.08L1606.58 528L1569.08 592.952H1494.08L1456.58 528Z" stroke="black"/>
<path d="M1456.58 658L1494.08 593.048H1569.08L1606.58 658L1569.08 722.952H1494.08L1456.58 658Z" stroke="black"/>
<path d="M1456.58 788L1494.08 723.048H1569.08L1606.58 788L1569.08 852.952H1494.08L1456.58 788Z" stroke="black"/>
<path d="M1494.37 75.5479H1568.79L1606 140L1568.79 204.452H1494.37L1457.15 140L1494.37 75.5479Z" stroke="black"/>
<path d="M1494.37 204.548H1568.79L1606 269L1568.79 333.452H1494.37L1457.15 269L1494.37 204.548Z" stroke="black"/>
<path d="M1494.37 852.548H1568.79L1606 917L1568.79 981.452H1494.37L1457.15 917L1494.37 852.548Z" stroke="black"/>
<path d="M1494.37 981.548H1568.79L1606 1046L1568.79 1110.45H1494.37L1457.15 1046L1494.37 981.548Z" fill="#1867CF" fill-opacity="0.43" stroke="black"/>
<path d="M1382.37 268.548H1456.79L1494 333L1456.79 397.452H1382.37L1345.15 333L1382.37 268.548Z" stroke="black"/>
<path d="M1344.58 463L1382.08 398.048H1457.08L1494.58 463L1457.08 527.952H1382.08L1344.58 463Z" stroke="black"/>
<path d="M1344.58 593L1382.08 528.048H1457.08L1494.58 593L1457.08 657.952H1382.08L1344.58 593Z" stroke="black"/>
<path d="M1344.58 723L1382.08 658.048H1457.08L1494.58 723L1457.08 787.952H1382.08L1344.58 723Z" stroke="black"/>
<path d="M1382.37 10.5479H1456.79L1494 75L1456.79 139.452H1382.37L1345.15 75L1382.37 10.5479Z" stroke="black"/>
<path d="M1382.37 139.548H1456.79L1494 204L1456.79 268.452H1382.37L1345.15 204L1382.37 139.548Z" stroke="black"/>
<path d="M1382.37 1045.55H1456.79L1494 1110L1456.79 1174.45H1382.37L1345.15 1110L1382.37 1045.55Z" fill="#1867CF" fill-opacity="0.43" stroke="black"/>
<path d="M1382.37 787.548H1456.79L1494 852L1456.79 916.452H1382.37L1345.15 852L1382.37 787.548Z" stroke="black"/>
<path d="M1382.37 916.548H1456.79L1494 981L1456.79 1045.45H1382.37L1345.15 981L1382.37 916.548Z" stroke="black"/>
<path d="M1270.37 203.548H1344.79L1382 268L1344.79 332.452H1270.37L1233.15 268L1270.37 203.548Z" stroke="black"/>
<path d="M1232.58 398L1270.08 333.048H1345.08L1382.58 398L1345.08 462.952H1270.08L1232.58 398Z" stroke="black"/>
<path d="M1232.58 528L1270.08 463.048H1345.08L1382.58 528L1345.08 592.952H1270.08L1232.58 528Z" stroke="black"/>
<path d="M1232.58 658L1270.08 593.048H1345.08L1382.58 658L1345.08 722.952H1270.08L1232.58 658Z" stroke="black"/>
<path d="M1270.37 74.5479H1344.79L1382 139L1344.79 203.452H1270.37L1233.15 139L1270.37 74.5479Z" stroke="black"/>
<path d="M1270.37 980.548H1344.79L1382 1045L1344.79 1109.45H1270.37L1233.15 1045L1270.37 980.548Z" stroke="black"/>
<path d="M1232.58 1175L1270.08 1110.05H1345.08L1382.58 1175L1345.08 1239.95H1270.08L1232.58 1175Z" fill="#1867CF" fill-opacity="0.43" stroke="black"/>
<path d="M1270.37 722.548H1344.79L1382 787L1344.79 851.452H1270.37L1233.15 787L1270.37 722.548Z" stroke="black"/>
<path d="M1270.37 851.548H1344.79L1382 916L1344.79 980.452H1270.37L1233.15 916L1270.37 851.548Z" stroke="black"/>
<path d="M1158.37 268.548H1232.79L1270 333L1232.79 397.452H1158.37L1121.15 333L1158.37 268.548Z" stroke="black"/>
<path d="M1120.58 463L1158.08 398.048H1233.08L1270.58 463L1233.08 527.952H1158.08L1120.58 463Z" stroke="black"/>
<path d="M1120.58 593L1158.08 528.048H1233.08L1270.58 593L1233.08 657.952H1158.08L1120.58 593Z" stroke="black"/>
<path d="M1120.58 723L1158.08 658.048H1233.08L1270.58 723L1233.08 787.952H1158.08L1120.58 723Z" stroke="black"/>
<path d="M1158.37 10.5479H1232.79L1270 75L1232.79 139.452H1158.37L1121.15 75L1158.37 10.5479Z" stroke="black"/>
<path d="M1158.37 139.548H1232.79L1270 204L1232.79 268.452H1158.37L1121.15 204L1158.37 139.548Z" stroke="black"/>
<path d="M1158.37 1045.55H1232.79L1270 1110L1232.79 1174.45H1158.37L1121.15 1110L1158.37 1045.55Z" stroke="black"/>
<path d="M1120.58 1240L1158.08 1175.05H1233.08L1270.58 1240L1233.08 1304.95H1158.08L1120.58 1240Z" stroke="black"/>
<path d="M1158.37 787.548H1232.79L1270 852L1232.79 916.452H1158.37L1121.15 852L1158.37 787.548Z" stroke="black"/>
<path d="M1158.37 916.548H1232.79L1270 981L1232.79 1045.45H1158.37L1121.15 981L1158.37 916.548Z" stroke="black"/>
<path d="M1046.37 333.548H1120.79L1158 398L1120.79 462.452H1046.37L1009.15 398L1046.37 333.548Z" stroke="black"/>
<path d="M1008.58 528L1046.08 463.048H1121.08L1158.58 528L1121.08 592.952H1046.08L1008.58 528Z" stroke="black"/>
<path d="M1008.58 658L1046.08 593.048H1121.08L1158.58 658L1121.08 722.952H1046.08L1008.58 658Z" stroke="black"/>
<path d="M1008.58 788L1046.08 723.048H1121.08L1158.58 788L1121.08 852.952H1046.08L1008.58 788Z" stroke="black"/>
<path d="M1046.37 75.5479H1120.79L1158 140L1120.79 204.452H1046.37L1009.15 140L1046.37 75.5479Z" fill="#F6EFEF" fill-opacity="0.63" stroke="black"/>
<path d="M1046.37 204.548H1120.79L1158 269L1120.79 333.452H1046.37L1009.15 269L1046.37 204.548Z" stroke="black"/>
<path d="M1046.37 1110.55H1120.79L1158 1175L1120.79 1239.45H1046.37L1009.15 1175L1046.37 1110.55Z" stroke="black"/>
<path d="M1008.58 1305L1046.08 1240.05H1121.08L1158.58 1305L1121.08 1369.95H1046.08L1008.58 1305Z" stroke="black"/>
<path d="M1046.37 852.548H1120.79L1158 917L1120.79 981.452H1046.37L1009.15 917L1046.37 852.548Z" stroke="black"/>
<path d="M1046.37 981.548H1120.79L1158 1046L1120.79 1110.45H1046.37L1009.15 1046L1046.37 981.548Z" stroke="black"/>
<path d="M822.365 333.548H896.788L934 398L896.788 462.452H822.365L785.153 398L822.365 333.548Z" stroke="black"/>
<path d="M784.577 528L822.077 463.048H897.077L934.577 528L897.077 592.952H822.077L784.577 528Z" stroke="black"/>
<path d="M784.577 658L822.077 593.048H897.077L934.577 658L897.077 722.952H822.077L784.577 658Z" stroke="black"/>
<path d="M784.577 788L822.077 723.048H897.077L934.577 788L897.077 852.952H822.077L784.577 788Z" stroke="black"/>
<path d="M822.365 75.5479H896.788L934 140L896.788 204.452H822.365L785.153 140L822.365 75.5479Z" fill="#F6EFEF" fill-opacity="0.63" stroke="black"/>
<path d="M822.365 204.548H896.788L934 269L896.788 333.452H822.365L785.153 269L822.365 204.548Z" stroke="black"/>
<path d="M822.365 1110.55H896.788L934 1175L896.788 1239.45H822.365L785.153 1175L822.365 1110.55Z" stroke="black"/>
<path d="M784.577 1305L822.077 1240.05H897.077L934.577 1305L897.077 1369.95H822.077L784.577 1305Z" stroke="black"/>
<path d="M822.365 852.548H896.788L934 917L896.788 981.452H822.365L785.153 917L822.365 852.548Z" stroke="black"/>
<path d="M822.365 981.548H896.788L934 1046L896.788 1110.45H822.365L785.153 1046L822.365 981.548Z" stroke="black"/>
</svg>
